<svg xmlns="http://www.w3.org/2000/svg" xmlns:xlink="http://www.w3.org/1999/xlink" viewBox="0 0 44 44"><defs><style>.cls-1,.cls-4{fill:none;}.cls-2{clip-path:url(#clip-path);}.cls-3{fill:#0e1114;}.cls-4{stroke:#000;stroke-miterlimit:10;stroke-width:2px;}</style><clipPath id="clip-path"><rect class="cls-1" width="44" height="44"/></clipPath></defs><title>arrow-black</title><g id="Слой_2" data-name="Слой 2"><g id="Слой_1-2" data-name="Слой 1"><g class="cls-2"><path class="cls-3" d="M2,43a1,1,0,0,0,.71-.29L41,4.41V39a1,1,0,0,0,2,0V2a1,1,0,0,0-1-1H5A1,1,0,0,0,5,3H39.59L1.29,41.29a1,1,0,0,0,0,1.42A1,1,0,0,0,2,43"/><path class="cls-4" d="M2,43a1,1,0,0,0,.71-.29L41,4.41V39a1,1,0,0,0,2,0V2a1,1,0,0,0-1-1H5A1,1,0,0,0,5,3H39.59L1.29,41.29a1,1,0,0,0,0,1.42A1,1,0,0,0,2,43Z"/></g></g></g></svg>