<svg xmlns="http://www.w3.org/2000/svg" viewBox="0 0 256 255.38"><defs><style>.cls-1{fill:#fff;}</style></defs><title>soc-skype</title><g id="Слой_2" data-name="Слой 2"><g id="Layer_1" data-name="Layer 1"><path class="cls-1" d="M246.94,149c-.08.45-.14.9-.22,1.35l-.44-2.57c.24.4.44.82.66,1.22a121.57,121.57,0,0,0,2-21.91A120.78,120.78,0,0,0,128.07,6.22a121.67,121.67,0,0,0-22.89,2.16h-.06c.43.22.85.42,1.27.65l-2.55-.4,1.28-.25A71.52,71.52,0,0,0,9,106.26c.08-.43.13-.88.22-1.31l.44,2.53c-.23-.4-.43-.81-.66-1.22A122,122,0,0,0,7.18,127.1,120.86,120.86,0,0,0,128.07,248a121.81,121.81,0,0,0,21.17-1.88c-.4-.23-.82-.44-1.23-.68l2.58.46-1.35.22a71.53,71.53,0,0,0,97.7-97.1ZM128.55,201.13c-42.94,0-62.16-21.11-62.16-36.94,0-8.11,6-13.8,14.26-13.8,18.37,0,13.61,26.39,47.9,26.39,17.56,0,27.25-9.53,27.25-19.29,0-5.86-2.89-12.37-14.45-15.22l-38.2-9.53C72.39,125,66.8,108.39,66.8,92.76c0-32.46,30.56-44.65,59.26-44.65,26.44,0,57.61,14.62,57.61,34.09,0,8.34-7.23,13.19-15.48,13.19-15.69,0-12.8-21.71-44.4-21.71-15.67,0-24.36,7.1-24.36,17.26s12.38,13.38,23.14,15.83l28.27,6.28c31,6.9,38.82,25,38.82,42C189.66,181.44,169.42,201.13,128.55,201.13ZM148,245.43c.41.24.83.45,1.23.68l1.35-.22Zm98.71-95.07c.08-.45.14-.9.22-1.35-.22-.4-.42-.82-.66-1.22ZM9.22,105c-.09.43-.14.88-.22,1.31.23.41.43.82.66,1.22ZM106.39,9c-.42-.23-.84-.43-1.27-.65l-1.28.25Z"/></g></g></svg>